<svg width="10.000000" height="7.000000" viewBox="0 0 10 7" fill="none" xmlns="http://www.w3.org/2000/svg" xmlns:xlink="http://www.w3.org/1999/xlink">
	<desc>
			Created with Pixso.
	</desc>
	<defs/>
	<path id="Right Arrow" d="M9.76221 0.798368L9.28125 0.263702C9.11426 0.0879297 8.91943 0 8.69727 0C8.47021 0 8.27783 0.0879297 8.11914 0.263702L5 3.72814L1.88086 0.263789C1.72217 0.0880175 1.52979 8.7738e-05 1.30273 8.7738e-05C1.08057 8.7738e-05 0.885742 0.0880175 0.71875 0.263789L0.244141 0.798455C0.081543 0.978951 0 1.19523 0 1.44712C0 1.70374 0.081543 1.91757 0.244141 2.08862L4.42236 6.72912C4.57617 6.90971 4.76904 7 5 7C5.22705 7 5.42139 6.90971 5.58398 6.72912L9.76221 2.08862C9.9209 1.91276 10 1.69893 10 1.44712C10 1.19996 9.9209 0.983764 9.76221 0.798368Z" fill="#000000" fill-opacity="1.000000" fill-rule="evenodd"/>
</svg>
