<svg width="20.000000" height="19.000000" viewBox="0 0 20 19" fill="none" xmlns="http://www.w3.org/2000/svg" xmlns:xlink="http://www.w3.org/1999/xlink">
	<desc>
			Created with Pixso.
	</desc>
	<defs/>
	<g opacity="0.240000">
		<path id="Combined-Shape" d="M1.55176 10.5922C1.19678 10.9455 0.621094 10.9455 0.266113 10.5922C-0.0888672 10.2388 -0.0888672 9.66595 0.266113 9.31262L9.35693 0.265015C9.7124 -0.0883179 10.2876 -0.0883179 10.6431 0.265015L19.7339 9.31262C20.0889 9.66595 20.0889 10.2388 19.7339 10.5922C19.3789 10.9455 18.8032 10.9455 18.4482 10.5922L18.1816 10.3274L18.1816 17.1945C18.1816 18.1933 17.3691 19 16.3628 19L3.63721 19C2.6333 19 1.81836 18.1934 1.81836 17.1945L1.81836 10.3274L1.55176 10.5922ZM6.36377 17.191L3.63721 17.1905C3.63721 17.1905 3.63623 10.2308 3.63623 8.51947L10 2.19165L16.3638 8.51947L16.3638 17.1945L13.6362 17.1929L13.6362 11.7597C13.6362 11.2609 13.2305 10.8571 12.73 10.8571L7.27002 10.8571C6.77002 10.8571 6.36377 11.2612 6.36377 11.7597L6.36377 17.191ZM11.8184 12.6653L11.8184 17.1923L8.18164 17.1914L8.18164 12.6667L11.8184 12.6653Z" clip-rule="evenodd" fill="#000000" fill-opacity="1.000000" fill-rule="evenodd"/>
	</g>
</svg>
